<?xml version="1.0" encoding="UTF-8" standalone="no"?>
<!DOCTYPE svg PUBLIC "-//W3C//DTD SVG 1.1//EN" "http://www.w3.org/Graphics/SVG/1.1/DTD/svg11.dtd">
<svg width="100%" height="100%" viewBox="0 0 500 373" version="1.1" xmlns="http://www.w3.org/2000/svg" xmlns:xlink="http://www.w3.org/1999/xlink" xml:space="preserve" xmlns:serif="http://www.serif.com/" style="fill-rule:evenodd;clip-rule:evenodd;stroke-linejoin:round;stroke-miterlimit:2;">
    <g transform="matrix(1,0,0,1,0,-54.9522)">
        <g transform="matrix(1,0,0,1,0,265.046)">
            <rect x="0" y="117.352" width="500" height="0.25" style="fill:rgb(236,236,236);"/>
        </g>
        <g transform="matrix(1,0,0,1,0,297.239)">
            <rect x="416.779" y="101.256" width="33.122" height="0.249" style="fill:rgb(236,236,236);"/>
        </g>
        <g transform="matrix(1,0,0,1,0,291.139)">
            <rect x="239.645" y="104.306" width="30.22" height="0.249" style="fill:rgb(236,236,236);"/>
        </g>
        <g transform="matrix(1,0,0,1,0,278.667)">
            <rect x="345.889" y="110.542" width="69.889" height="0.249" style="fill:rgb(236,236,236);"/>
        </g>
        <g transform="matrix(1,0,0,1,0,282.027)">
            <rect x="52.459" y="108.862" width="167.138" height="0.249" style="fill:rgb(236,236,236);"/>
        </g>
        <g transform="matrix(1,0,0,1,0,282.027)">
            <rect x="228.5" y="108.862" width="6.333" height="0.249" style="fill:rgb(236,236,236);"/>
        </g>
        <g transform="matrix(1,0,0,1,43.915,337.549)">
            <path d="M0,-282.347C-3.01,-282.347 -5.458,-279.899 -5.458,-276.889L-5.458,-5.458C-5.458,-2.448 -3.01,0 0,0L193.099,0C196.107,0 198.556,-2.448 198.556,-5.458L198.556,-276.889C198.556,-279.899 196.107,-282.347 193.099,-282.347L0,-282.347ZM193.099,0.25L0,0.25C-3.147,0.25 -5.708,-2.31 -5.708,-5.458L-5.708,-276.889C-5.708,-280.036 -3.147,-282.597 0,-282.597L193.099,-282.597C196.245,-282.597 198.806,-280.036 198.806,-276.889L198.806,-5.458C198.806,-2.31 196.245,0.25 193.099,0.25" style="fill:rgb(236,236,236);fill-rule:nonzero;"/>
        </g>
        <g transform="matrix(1,0,0,1,260.212,337.549)">
            <path d="M0,-282.347C-3.009,-282.347 -5.457,-279.899 -5.457,-276.889L-5.457,-5.458C-5.457,-2.448 -3.009,0 0,0L193.099,0C196.108,0 198.557,-2.448 198.557,-5.458L198.557,-276.889C198.557,-279.899 196.108,-282.347 193.099,-282.347L0,-282.347ZM193.099,0.25L0,0.25C-3.147,0.25 -5.707,-2.31 -5.707,-5.458L-5.707,-276.889C-5.707,-280.036 -3.147,-282.597 0,-282.597L193.099,-282.597C196.246,-282.597 198.807,-280.036 198.807,-276.889L198.807,-5.458C198.807,-2.31 196.246,0.25 193.099,0.25" style="fill:rgb(236,236,236);fill-rule:nonzero;"/>
        </g>
        <g transform="matrix(1,0,0,1,0,158.502)">
            <rect x="420.277" y="122.185" width="23.581" height="97.128" style="fill:rgb(240,240,240);"/>
        </g>
        <g transform="matrix(1,0,0,1,0,260.213)">
            <rect x="274.04" y="117.602" width="165.291" height="4.583" style="fill:rgb(240,240,240);"/>
        </g>
        <g transform="matrix(-1,0,0,1,689.789,158.502)">
            <rect x="269.512" y="122.185" width="150.765" height="97.128" style="fill:rgb(245,245,245);"/>
        </g>
        <g transform="matrix(-1,0,0,1,689.789,158.501)">
            <rect x="278.783" y="158.888" width="132.223" height="23.723" style="fill:rgb(240,240,240);"/>
        </g>
        <g transform="matrix(-1,0,0,1,689.789,214.599)">
            <rect x="278.783" y="130.839" width="132.223" height="23.723" style="fill:rgb(240,240,240);"/>
        </g>
        <g transform="matrix(1,0,0,1,310.379,316.737)">
            <path d="M0,3.253L69.03,3.253C69.925,3.253 70.657,2.521 70.657,1.626C70.657,0.732 69.925,0 69.03,0L0,0C-0.895,0 -1.627,0.732 -1.627,1.626C-1.627,2.521 -0.895,3.253 0,3.253" style="fill:rgb(245,245,245);fill-rule:nonzero;"/>
        </g>
        <g transform="matrix(-1,0,0,1,689.789,102.403)">
            <rect x="278.783" y="186.937" width="132.223" height="23.723" style="fill:rgb(240,240,240);"/>
        </g>
        <g transform="matrix(1,0,0,1,310.379,288.687)">
            <path d="M0,3.253L69.03,3.253C69.925,3.253 70.657,2.521 70.657,1.626C70.657,0.732 69.925,0 69.03,0L0,0C-0.895,0 -1.627,0.732 -1.627,1.626C-1.627,2.521 -0.895,3.253 0,3.253" style="fill:rgb(245,245,245);fill-rule:nonzero;"/>
        </g>
        <g transform="matrix(1,0,0,1,310.379,344.786)">
            <path d="M0,3.253L69.03,3.253C69.925,3.253 70.657,2.521 70.657,1.626C70.657,0.732 69.925,0 69.03,0L0,0C-0.895,0 -1.627,0.732 -1.627,1.626C-1.627,2.521 -0.895,3.253 0,3.253" style="fill:rgb(245,245,245);fill-rule:nonzero;"/>
        </g>
        <g transform="matrix(1,0,0,1,0,53.399)">
            <rect x="266.37" y="219.313" width="153.907" height="7.975" style="fill:rgb(240,240,240);"/>
        </g>
        <g transform="matrix(-1,0,0,1,867.431,53.399)">
            <rect x="420.277" y="219.313" width="26.877" height="7.975" style="fill:rgb(231,231,231);"/>
        </g>
        <g transform="matrix(1,0,0,1,396.626,252.864)">
            <path d="M0,-0.242C0,10.856 -9.751,19.845 -21.76,19.845C-33.768,19.845 -43.519,10.856 -43.519,-0.242C-43.519,-6.79 -40.132,-14.693 -34.849,-20.087L-8.67,-20.087C-3.387,-14.693 0,-6.79 0,-0.242" style="fill:rgb(231,231,231);fill-rule:nonzero;"/>
        </g>
        <g transform="matrix(1,0,0,1,426.758,256.216)">
            <path d="M0,-0.202C0,9.022 -8.104,16.493 -18.085,16.493C-28.065,16.493 -36.17,9.022 -36.17,-0.202C-36.17,-5.645 -33.355,-12.212 -28.964,-16.695L-7.206,-16.695C-2.815,-12.212 0,-5.645 0,-0.202" style="fill:rgb(240,240,240);fill-rule:nonzero;"/>
        </g>
        <g transform="matrix(1,0,0,1,325.382,206.269)">
            <path d="M0,66.314L17.122,66.314L14.993,0L0,0L0,66.314Z" style="fill:rgb(240,240,240);fill-rule:nonzero;"/>
        </g>
        <g transform="matrix(1,0,0,1,295.682,196.376)">
            <path d="M0,76.207L41.669,76.207L46.822,0L5.152,0L0,76.207Z" style="fill:rgb(231,231,231);fill-rule:nonzero;"/>
        </g>
        <g transform="matrix(1,0,0,1,294.707,196.376)">
            <path d="M0,76.207L41.669,76.207L46.822,0L5.152,0L0,76.207Z" style="fill:rgb(240,240,240);fill-rule:nonzero;"/>
        </g>
        <g transform="matrix(1,0,0,1,330.866,205.57)">
            <path d="M0,57.818L3.618,0.393C3.731,-1.406 2.302,-2.928 0.499,-2.928L-22.375,-2.928C-24.025,-2.928 -25.39,-1.646 -25.494,0L-29.112,57.425C-29.225,59.225 -27.796,60.746 -25.993,60.746L-3.119,60.746C-1.469,60.746 -0.104,59.464 0,57.818" style="fill:white;fill-rule:nonzero;"/>
        </g>
        <g transform="matrix(-1,0,0,1,290.382,-94.716)">
            <rect x="70.785" y="202.669" width="148.812" height="189.378" style="fill:rgb(231,231,231);"/>
        </g>
        <g transform="matrix(-1,0,0,1,286.686,-94.716)">
            <rect x="68.937" y="202.669" width="148.812" height="189.378" style="fill:rgb(250,250,250);"/>
        </g>
        <g transform="matrix(1,0,0,1,0,-94.716)">
            <rect x="73.102" y="206.834" width="140.483" height="181.048" style="fill:white;"/>
        </g>
        <g transform="matrix(0,-1,-1,0,143.343,238.459)">
            <path d="M-18.99,-18.99C-29.478,-18.99 -37.98,-10.488 -37.98,0C-37.98,10.488 -29.478,18.99 -18.99,18.99C-8.502,18.99 0,10.488 0,0C0,-10.488 -8.502,-18.99 -18.99,-18.99" style="fill:rgb(250,250,250);fill-rule:nonzero;"/>
        </g>
        <g transform="matrix(0,-1,-1,0,143.343,183.652)">
            <path d="M-18.99,-18.99C-29.478,-18.99 -37.98,-10.488 -37.98,0C-37.98,10.488 -29.478,18.99 -18.99,18.99C-8.502,18.99 0,10.488 0,0C0,-10.488 -8.502,-18.99 -18.99,-18.99" style="fill:rgb(236,236,236);fill-rule:nonzero;"/>
        </g>
        <g transform="matrix(0,-1,-1,0,143.343,128.845)">
            <path d="M-18.99,-18.99C-29.478,-18.99 -37.98,-10.488 -37.98,0C-37.98,10.488 -29.478,18.99 -18.99,18.99C-8.502,18.99 0,10.488 0,0C0,-10.488 -8.502,-18.99 -18.99,-18.99" style="fill:rgb(225,225,225);fill-rule:nonzero;"/>
        </g>
        <g transform="matrix(0,-1,-1,0,363.776,75.694)">
            <path d="M-44.897,-44.897C-69.693,-44.897 -89.793,-24.796 -89.793,-0.001C-89.793,24.795 -69.693,44.897 -44.897,44.897C-20.101,44.897 -0.001,24.795 -0.001,-0.001C-0.001,-24.796 -20.101,-44.897 -44.897,-44.897" style="fill:rgb(225,225,225);fill-rule:nonzero;"/>
        </g>
        <g transform="matrix(0,-1,-1,0,362.344,75.694)">
            <path d="M-44.897,-44.897C-69.693,-44.897 -89.793,-24.796 -89.793,-0.001C-89.793,24.795 -69.693,44.897 -44.897,44.897C-20.101,44.897 -0.001,24.795 -0.001,-0.001C-0.001,-24.796 -20.101,-44.897 -44.897,-44.897" style="fill:rgb(240,240,240);fill-rule:nonzero;"/>
        </g>
        <g transform="matrix(1,0,0,1,401.612,120.6)">
            <path d="M0,-0.014C0,21.669 -17.586,39.255 -39.269,39.255C-50.793,39.255 -61.147,34.294 -68.324,26.393C-74.664,19.426 -78.524,10.145 -78.524,-0.014C-78.524,-21.697 -60.952,-39.269 -39.269,-39.269C-26.797,-39.269 -15.677,-33.458 -8.514,-24.386C-8.473,-24.345 -8.431,-24.303 -8.403,-24.261C-3.135,-17.586 0,-9.169 0,-0.014" style="fill:rgb(250,250,250);fill-rule:nonzero;"/>
        </g>
        <g transform="matrix(1,0,0,1,365.99,129.245)">
            <path d="M0,-10.109C0.47,-9.168 0.382,-8.004 -0.309,-7.131L-14.948,11.34C-15.905,12.546 -17.657,12.749 -18.864,11.793C-20.07,10.837 -20.273,9.084 -19.317,7.878L-6.32,-8.521L-16.681,-17.66C-17.836,-18.678 -17.946,-20.439 -16.928,-21.593C-15.91,-22.748 -14.148,-22.858 -12.994,-21.84L-0.65,-10.953C-0.373,-10.708 -0.156,-10.421 0,-10.109" style="fill:rgb(225,225,225);fill-rule:nonzero;"/>
        </g>
        <g transform="matrix(0,-1,-1,0,250,222.349)">
            <path d="M-193.889,-193.889C-200.143,-193.889 -205.212,-107.082 -205.212,0C-205.212,107.082 -200.143,193.889 -193.889,193.889C-187.636,193.889 -182.566,107.082 -182.566,0C-182.566,-107.082 -187.636,-193.889 -193.889,-193.889" style="fill:rgb(245,245,245);fill-rule:nonzero;"/>
        </g>
        <g transform="matrix(-1,0,0,1,144.984,411.332)">
            <path d="M-210.032,8.615L0,8.615L-7.086,0L-202.945,0L-210.032,8.615Z" style="fill:rgb(0,124,255);fill-rule:nonzero;"/>
        </g>
        <g opacity="0.6">
            <g transform="matrix(-1,0,0,1,144.984,411.332)">
                <path d="M-210.032,8.615L0,8.615L-7.086,0L-202.945,0L-210.032,8.615Z" style="fill:white;fill-rule:nonzero;"/>
            </g>
        </g>
        <g transform="matrix(1,0,0,1,189.424,356.73)">
            <path d="M0,-19.891C26.106,-20.549 43.049,-0.664 43.049,-0.664C40.484,7.487 38.846,13.589 38.846,13.589C24.567,10.889 8.327,9.797 -5.048,6.32C-17.118,3.182 -18.37,-13.134 -17.064,-19.978C-15.758,-26.821 -8.887,-28.431 -2.145,-30.663C5.546,-33.21 20.211,-33.413 30.715,-33.446C41.796,-33.48 56.354,-32.455 63.894,-30.745C63.894,-30.745 79.918,-31.459 91.781,-31.256C98.726,-32.432 94.55,-21.124 83.524,-11.478C72.084,-1.47 57.388,2.517 43.176,0.254L43.091,0.241" style="fill:rgb(26,46,53);fill-rule:nonzero;"/>
        </g>
        <g transform="matrix(1,0,0,1,314.947,356.73)">
            <path d="M0,-19.891C-26.106,-20.549 -49.279,-0.664 -49.279,-0.664C-46.713,7.487 -45.076,13.589 -45.076,13.589C-30.797,10.889 -8.327,9.797 5.048,6.32C17.118,3.182 18.37,-13.134 17.064,-19.978C15.758,-26.821 8.887,-28.431 2.145,-30.663C-5.546,-33.21 -20.211,-33.413 -30.715,-33.446C-41.796,-33.48 -56.354,-32.455 -63.894,-30.745C-63.894,-30.745 -79.918,-31.459 -91.781,-31.256C-98.726,-32.432 -94.55,-21.124 -83.524,-11.478C-72.084,-1.47 -57.388,2.517 -43.176,0.254L-43.091,0.241" style="fill:rgb(26,46,53);fill-rule:nonzero;"/>
        </g>
        <g transform="matrix(1,0,0,1,232.587,331.025)">
            <path d="M0,-65.055C-2.253,-57.342 -4.641,-49.686 -7.148,-42.054C-8.394,-38.236 -9.672,-34.425 -10.986,-30.621C-12.282,-26.807 -13.63,-23.02 -15.05,-19.181L-15.229,-18.707L-15.465,-18.123C-15.629,-17.744 -15.809,-17.386 -15.99,-17.024C-16.364,-16.331 -16.767,-15.677 -17.192,-15.082C-18.041,-13.889 -18.958,-12.883 -19.896,-11.996C-21.774,-10.224 -23.709,-8.876 -25.646,-7.687C-29.52,-5.322 -33.464,-3.659 -37.404,-2.174C-45.326,0.713 -53.248,2.625 -61.455,3.919L-62.982,-2.567C-59.35,-3.867 -55.602,-5.242 -52.002,-6.743C-48.38,-8.222 -44.812,-9.776 -41.396,-11.487C-37.979,-13.169 -34.695,-15.049 -31.868,-17.093C-29.047,-19.088 -26.793,-21.605 -26.57,-23.061L-19.873,-46.012C-17.622,-53.687 -15.293,-61.353 -12.868,-68.974L0,-65.055Z" style="fill:rgb(231,123,98);fill-rule:nonzero;"/>
        </g>
        <g transform="matrix(-0.969382,-0.245556,-0.245556,0.969382,163.968,333.652)">
            <path d="M-6.791,-6.749L5.826,-6.749L-2.706,3.206C-2.706,3.206 -10.811,1.517 -12.325,-3.624L-6.791,-6.749Z" style="fill:rgb(231,123,98);fill-rule:nonzero;"/>
        </g>
        <g transform="matrix(1,0,0,1,258.648,253.551)">
            <path d="M0,-70.922C-4.373,-74.089 -11.577,-76.75 -14.475,-71.961C-17.373,-67.172 -19.873,-56.922 -24.706,-54.505C-29.54,-52.089 -35.29,-42.172 -32.123,-33.505C-28.956,-24.839 -41.456,-27.172 -42.123,-14.005C-42.79,-0.839 -24.049,5.828 -12.211,-0.672C-0.373,-7.172 7.96,-41.089 7.21,-54.505C6.46,-67.922 0,-70.922 0,-70.922" style="fill:rgb(26,46,53);fill-rule:nonzero;"/>
        </g>
        <g transform="matrix(1,0,0,1,253.147,259.26)">
            <path d="M0,-77.215C0,-77.215 6.421,-86.963 18.239,-81.933C32.045,-76.056 27.711,-69.727 30.211,-56.346C32.711,-42.965 48.16,-40.578 47.461,-21.965C46.27,9.748 18.211,3.868 10.461,-4.548C2.711,-12.965 11.295,-43.882 11.295,-43.882L0,-77.215Z" style="fill:rgb(26,46,53);fill-rule:nonzero;"/>
        </g>
        <g transform="matrix(0.492156,0.870507,0.870507,-0.492156,156.31,324.748)">
            <path d="M1.765,-8.133L12.757,-8.133L15.835,1.954L2.744,2.662L1.765,-8.133Z" style="fill:rgb(231,123,98);fill-rule:nonzero;"/>
        </g>
        <g transform="matrix(-0.985995,0.166774,0.166774,0.985995,237.251,277.963)">
            <path d="M7.945,-31.872C13.41,-31.424 20.722,-10.482 20.722,-10.482L7.945,1.778C7.945,1.778 -9.578,-17.632 -6.522,-24.074C-3.339,-30.783 -0.03,-32.525 7.945,-31.872" style="fill:rgb(0,124,255);fill-rule:nonzero;"/>
        </g>
        <g opacity="0.2">
            <g transform="matrix(1,0,0,1,223.621,281.04)">
                <path d="M0,-25.229L11.375,-22.594L12.466,-11.474C9.491,-5.34 6.091,0 6.091,0L-2.791,-6.034C-2.408,-11.148 -1.445,-21.772 0,-25.229" style="fill-rule:nonzero;"/>
            </g>
        </g>
        <g transform="matrix(1,0,0,1,224.102,321.67)">
            <path d="M0,-73.808C0,-73.808 -6.142,-71.645 6.162,4.009L58.526,4.009C57.647,-17.303 57.622,-30.445 67.808,-74.182C67.808,-74.182 56.837,-76.568 45.572,-77.111C36.76,-77.536 29.541,-77.817 21.794,-77.11C11.582,-76.179 0,-73.808 0,-73.808" style="fill:rgb(0,124,255);fill-rule:nonzero;"/>
        </g>
        <g opacity="0.2">
            <g transform="matrix(1,0,0,1,279.59,293.238)">
                <path d="M0,-25.442L6.757,-19.691C5.312,-12.041 4.349,-5.667 3.725,0C2.465,-5.681 -0.751,-21.093 0,-25.442" style="fill-rule:nonzero;"/>
            </g>
        </g>
        <g transform="matrix(1,0,0,1,267.318,256.021)">
            <path d="M0,-38.236C-1.5,-30.585 -2.997,-16.567 2.356,-11.462C2.356,-11.462 -2.611,0 -15.895,0C-29.178,0 -21.422,-11.461 -21.422,-11.461C-12.89,-13.499 -13.111,-19.829 -14.597,-25.773L0,-38.236Z" style="fill:rgb(231,123,98);fill-rule:nonzero;"/>
        </g>
        <g transform="matrix(1,0,0,1,269.672,267.712)">
            <path d="M0,-23.15C-8.81,-23.58 -16.03,-23.86 -23.78,-23.15C-27.46,-22.82 -31.31,-22.3 -34.73,-21.77C-36.99,-17.68 -45.96,0.71 -23.95,0.71C-0.87,0.71 8.75,-19.51 9.95,-22.26C6.86,-22.65 3.44,-22.98 0,-23.15" style="fill:rgb(231,123,98);fill-rule:nonzero;"/>
        </g>
        <g opacity="0.2">
            <g transform="matrix(-0.760728,0.649071,0.649071,0.760728,257.831,235.766)">
                <path d="M-11.06,-7.515L0.296,-7.515C0.938,-6.213 1.653,-4.947 2.478,-3.828C-0.307,-2.071 -6.035,-1.887 -8.513,-4.259C-9.75,-5.441 -10.756,-6.732 -11.06,-7.515" style="fill-rule:nonzero;"/>
            </g>
        </g>
        <g transform="matrix(-0.335774,-0.941942,-0.941942,0.335774,249.112,191.794)">
            <path d="M-20.366,-22.77C-31.392,-16.277 -36.198,-13.764 -39.112,-5.041C-43.498,8.08 -33.111,20.203 -20.366,17.134C-8.896,14.372 7.208,4.217 6.066,-9.231C4.94,-22.479 -9.34,-29.264 -20.366,-22.77" style="fill:rgb(231,123,98);fill-rule:nonzero;"/>
        </g>
        <g transform="matrix(1,0,0,1,255.025,212.131)">
            <path d="M0,-30.502C-4.518,-27.966 -1.526,-23.502 6.612,-20.335C14.75,-17.169 15.25,-16.585 13.917,-10.002C12.583,-3.419 24.444,2.667 24.597,-4.126C24.75,-10.919 27.167,-23.835 20.833,-27.419C14.5,-31.002 4.75,-33.169 0,-30.502" style="fill:rgb(26,46,53);fill-rule:nonzero;"/>
        </g>
        <g transform="matrix(0.274721,-0.961524,-0.961524,-0.274721,246.411,182.273)">
            <path d="M-0.253,-8.295C-2.583,-4.844 -14.585,1.217 -11.277,1.469C-7.969,1.721 -3.173,1.315 -0.253,-2.835C2.666,-6.984 3.335,-9.176 3.335,-9.176L-0.253,-8.295Z" style="fill:rgb(26,46,53);fill-rule:nonzero;"/>
        </g>
        <g transform="matrix(0.00590689,-0.999983,-0.999983,-0.00590689,275.854,209.102)">
            <path d="M-4.77,-3.957C-7.104,-2.737 -8.704,-0.563 -9.378,1.499C-10.392,4.601 -7.717,6.187 -4.77,5.354C-2.116,4.606 1.608,2.089 1.343,-1.039C1.082,-4.12 -2.1,-5.352 -4.77,-3.957" style="fill:rgb(231,123,98);fill-rule:nonzero;"/>
        </g>
        <g transform="matrix(1,0,0,1,229.685,372.935)">
            <path d="M0,-4.108L4.796,-17.776C4.971,-18.273 7.048,-16.969 7.558,-16.868C7.558,-16.868 15.065,-17.841 18.054,-17.02C21.044,-16.199 20.912,-14.261 20.367,-12.227C19.098,-7.488 17.049,-6.585 15.725,-0.305C14.917,3.53 14.26,7.058 10.067,10.696C6.069,14.165 2.226,13.951 3.805,9.733C7.607,-0.427 5.836,1.081 3.404,-2.697C2.97,-3.371 -0.255,-3.38 0,-4.108" style="fill:rgb(231,123,98);fill-rule:nonzero;"/>
        </g>
        <g transform="matrix(1,0,0,1,267.325,372.935)">
            <path d="M0,-4.108L-4.796,-17.776C-4.971,-18.273 -7.048,-16.969 -7.558,-16.868C-7.558,-16.868 -15.065,-17.841 -18.054,-17.02C-21.044,-16.199 -20.912,-14.261 -20.367,-12.227C-19.098,-7.488 -17.049,-6.585 -15.725,-0.305C-14.917,3.53 -14.26,7.058 -10.067,10.696C-6.069,14.165 -2.226,13.951 -3.805,9.733C-7.607,-0.427 -5.836,1.081 -3.404,-2.697C-2.97,-3.371 0.255,-3.38 0,-4.108" style="fill:rgb(231,123,98);fill-rule:nonzero;"/>
        </g>
        <g transform="matrix(0.257593,-0.966254,-0.966254,-0.257593,239.255,361.649)">
            <path d="M-12.132,4.968L6.63,4.968L7.532,11.792L-13.589,15.445L-12.132,4.968Z" style="fill:rgb(0,124,255);fill-rule:nonzero;"/>
        </g>
        <g transform="matrix(-0.382822,-0.923822,-0.923822,0.382822,277.413,359.318)">
            <path d="M-7.802,15.53L12.043,15.53L12.02,9.181L-9.007,5.02L-7.802,15.53Z" style="fill:rgb(0,124,255);fill-rule:nonzero;"/>
        </g>
        <g transform="matrix(1,0,0,1,248.701,211.911)">
            <path d="M0,-7.554C0,-7.554 -2.324,-3.34 -4.527,-1.447C-3.33,0 -0.94,-0.281 -0.94,-0.281L0,-7.554Z" style="fill:rgb(214,76,56);fill-rule:nonzero;"/>
        </g>
        <g transform="matrix(1,0,0,1,250.91,215.215)">
            <path d="M0,1.792C0.024,1.808 0.052,1.818 0.083,1.822C3.568,2.256 6.27,-0.001 6.383,-0.098C6.465,-0.168 6.475,-0.291 6.405,-0.373C6.336,-0.455 6.213,-0.464 6.131,-0.395C6.105,-0.373 3.442,1.848 0.131,1.436C0.024,1.422 -0.073,1.498 -0.086,1.605C-0.096,1.681 -0.06,1.753 0,1.792" style="fill:rgb(26,46,53);fill-rule:nonzero;"/>
        </g>
        <g transform="matrix(1,0,0,1,262.343,196.065)">
            <path d="M0,3.35C0.116,3.403 0.254,3.398 0.369,3.326C0.551,3.211 0.606,2.971 0.492,2.789C-1.244,0.028 -3.946,-0.048 -4.06,-0.05C-4.275,-0.053 -4.451,0.117 -4.455,0.332C-4.46,0.546 -4.289,0.724 -4.074,0.729C-3.977,0.731 -1.672,0.812 -0.168,3.203C-0.126,3.27 -0.067,3.32 0,3.35" style="fill:rgb(26,46,53);fill-rule:nonzero;"/>
        </g>
        <g transform="matrix(1,0,0,1,253.613,205.848)">
            <path d="M0,-2.926C-0.125,-2.951 -0.258,-2.915 -0.353,-2.818C-0.505,-2.665 -0.503,-2.419 -0.351,-2.267C1.969,0.025 4.617,-0.518 4.729,-0.542C4.938,-0.588 5.071,-0.794 5.026,-1.004C4.982,-1.213 4.775,-1.348 4.565,-1.304C4.47,-1.284 2.207,-0.836 0.197,-2.821C0.141,-2.877 0.072,-2.912 0,-2.926" style="fill:rgb(26,46,53);fill-rule:nonzero;"/>
        </g>
        <g transform="matrix(1,0,0,1,239.86,204.423)">
            <path d="M0,-2.926C-0.125,-2.951 -0.258,-2.915 -0.353,-2.818C-0.505,-2.665 -0.503,-2.419 -0.351,-2.267C1.969,0.025 4.617,-0.518 4.729,-0.542C4.938,-0.588 5.071,-0.794 5.026,-1.004C4.982,-1.213 4.775,-1.348 4.565,-1.304C4.47,-1.284 2.207,-0.836 0.197,-2.821C0.141,-2.877 0.072,-2.912 0,-2.926" style="fill:rgb(26,46,53);fill-rule:nonzero;"/>
        </g>
        <g transform="matrix(1,0,0,1,240.998,192.993)">
            <path d="M0,2.59C0.127,2.648 0.28,2.635 0.399,2.545C2.639,0.826 4.829,1.552 4.922,1.584C5.124,1.654 5.346,1.547 5.417,1.344C5.488,1.141 5.377,0.917 5.179,0.849C5.071,0.811 2.511,-0.058 -0.075,1.927C-0.246,2.058 -0.278,2.302 -0.147,2.473C-0.107,2.525 -0.056,2.565 0,2.59" style="fill:rgb(26,46,53);fill-rule:nonzero;"/>
        </g>
        <g transform="matrix(1,0,0,1,283.412,327.635)">
            <path d="M0,-5.029L0.418,-0.342C0.601,0.022 0.17,0.393 -0.435,0.393L-53.407,0.393C-53.879,0.393 -54.27,0.161 -54.3,-0.136L-54.772,-4.823C-54.805,-5.147 -54.396,-5.422 -53.879,-5.422L-0.853,-5.422C-0.463,-5.422 -0.118,-5.263 0,-5.029" style="fill:rgb(0,124,255);fill-rule:nonzero;"/>
        </g>
        <g opacity="0.3">
            <g transform="matrix(1,0,0,1,283.412,327.635)">
                <path d="M0,-5.029L0.418,-0.342C0.601,0.022 0.17,0.393 -0.435,0.393L-53.407,0.393C-53.879,0.393 -54.27,0.161 -54.3,-0.136L-54.772,-4.823C-54.805,-5.147 -54.396,-5.422 -53.879,-5.422L-0.853,-5.422C-0.463,-5.422 -0.118,-5.263 0,-5.029" style="fill-rule:nonzero;"/>
            </g>
        </g>
        <g transform="matrix(1,0,0,1,276.29,321.798)">
            <path d="M0,6.738L1.42,6.738C1.703,6.738 1.918,6.592 1.899,6.414L1.233,0.324C1.213,0.146 0.966,0 0.683,0L-0.737,0C-1.02,0 -1.235,0.146 -1.216,0.324L-0.55,6.414C-0.53,6.592 -0.283,6.738 0,6.738" style="fill:rgb(26,46,53);fill-rule:nonzero;"/>
        </g>
        <g transform="matrix(1,0,0,1,233.996,321.798)">
            <path d="M0,6.738L1.42,6.738C1.703,6.738 1.918,6.592 1.899,6.414L1.233,0.324C1.213,0.146 0.966,0 0.683,0L-0.737,0C-1.02,0 -1.235,0.146 -1.216,0.324L-0.55,6.414C-0.53,6.592 -0.283,6.738 0,6.738" style="fill:rgb(26,46,53);fill-rule:nonzero;"/>
        </g>
        <g transform="matrix(1,0,0,1,255.143,321.798)">
            <path d="M0,6.738L1.42,6.738C1.703,6.738 1.918,6.592 1.899,6.414L1.233,0.324C1.213,0.146 0.966,0 0.683,0L-0.737,0C-1.02,0 -1.235,0.146 -1.216,0.324L-0.55,6.414C-0.53,6.592 -0.283,6.738 0,6.738" style="fill:rgb(26,46,53);fill-rule:nonzero;"/>
        </g>
        <g transform="matrix(1,0,0,1,296.562,334.945)">
            <path d="M0,-71.922L4.289,-48.807C5.014,-44.963 5.756,-41.134 6.535,-37.348C6.921,-35.45 7.354,-33.589 7.764,-31.732L8.424,-29.007L9.068,-26.664C9.227,-26.019 9.922,-24.954 10.915,-23.898C11.916,-22.833 13.207,-21.77 14.607,-20.768C17.437,-18.761 20.693,-16.929 24.072,-15.271C27.451,-13.593 30.975,-12.06 34.55,-10.604C38.104,-9.123 41.804,-7.77 45.387,-6.486L43.86,0C35.76,-1.276 27.94,-3.154 20.122,-5.98C16.231,-7.424 12.343,-9.058 8.512,-11.325C6.6,-12.477 4.689,-13.767 2.823,-15.43C0.98,-17.105 -0.906,-19.169 -2.204,-22.221L-2.433,-22.799L-2.585,-23.223L-2.851,-23.989L-3.379,-25.522L-4.313,-28.511C-4.9,-30.482 -5.438,-32.455 -5.943,-34.41C-6.968,-38.325 -7.903,-42.227 -8.755,-46.133C-10.49,-53.951 -11.979,-61.742 -13.258,-69.652L0,-71.922Z" style="fill:rgb(231,123,98);fill-rule:nonzero;"/>
        </g>
        <g transform="matrix(-0.967689,-0.252148,-0.252148,0.967689,283.567,277.627)">
            <path d="M-0.474,-31.269C-5.953,-31.048 -16.501,-16.352 -16.501,-16.352L-0.474,2.862C-0.474,2.862 10.406,-8.663 9.982,-15.781C9.542,-23.193 5.778,-31.52 -0.474,-31.269" style="fill:rgb(0,124,255);fill-rule:nonzero;"/>
        </g>
        <g transform="matrix(0.969382,-0.245556,-0.245556,-0.969382,338.738,329.805)">
            <path d="M0.841,0.847L13.458,0.847L4.926,-9.108C4.926,-9.108 -3.179,-7.419 -4.693,-2.278L0.841,0.847Z" style="fill:rgb(231,123,98);fill-rule:nonzero;"/>
        </g>
        <g transform="matrix(-0.492156,0.870507,0.870507,0.492156,351.961,340.934)">
            <path d="M-13.941,3.025L-2.949,3.025L0.129,-7.062L-12.962,-7.77L-13.941,3.025Z" style="fill:rgb(231,123,98);fill-rule:nonzero;"/>
        </g>
    </g>
</svg>
